FFmpeg version SVN-r25716, Copyright (c) 2000-2010 the FFmpeg developers  built on Nov 10 2010 12:23:18 with gcc 4.1.2 20080704 (Red Hat 4.1.2-48)  configuration: --enable-libmp3lame --enable-shared --disable-mmx --arch=x86_64  libavutil     50.33. 0 / 50.33. 0  libavcore      0.12. 1 /  0.12. 1  libavcodec    52.94. 4 / 52.94. 4  libavformat   52.84. 0 / 52.84. 0  libavdevice   52. 2. 2 / 52. 2. 2  libavfilter    1.59. 0 /  1.59. 0  libswscale     0.12. 0 /  0.12. 0Seems stream 0 codec frame rate differs from container frame rate: 3600.00 (3600/1) -> 10.00 (10/1)Input #0, mov,mp4,m4a,3gp,3g2,mj2, from '/RAID10/data/converted_video_files/12019.mov':  Metadata:    major_brand     : qt      minor_version   : 537199360    compatible_brands: qt    Duration: 00:00:06.90, start: 0.000000, bitrate: 592 kb/s    Stream #0.0(eng): Video: h264, yuv420p, 334x250, 590 kb/s, 10 fps, 10 tbr, 1800 tbn, 3600 tbc[buffer @ 0x13b6db20] w:334 h:250 pixfmt:yuv420pOutput #0, flv, to '/RAID10/data/converted_video_files/12019.flv':  Metadata:    encoder         : Lavf52.84.0    Stream #0.0(eng): Video: flv, yuv420p, 334x250, q=2-31, 600 kb/s, 1k tbn, 24 tbcStream mapping:  Stream #0.0 -> #0.0Press [q] to stop encodingframe=   44 fps=  0 q=3.4 size=     240kB time=4.33 bitrate= 454.2kbits/s    frame=   69 fps=  0 q=2.3 Lsize=     351kB time=6.83 bitrate= 421.2kbits/s    video:350kB audio:0kB global headers:0kB muxing overhead 0.366521%